<?xml version="1.0" encoding="UTF-8"?>
<svg width="207px" height="32px" viewBox="0 0 207 32" version="1.1" xmlns="http://www.w3.org/2000/svg" xmlns:xlink="http://www.w3.org/1999/xlink">
    <title>DA logo</title>
    <g id="Page-1" stroke="none" stroke-width="1" fill="none" fill-rule="evenodd">
        <g id="DA_website_mobile_v1_home-page" transform="translate(-39.000000, -23.000000)">
            <g id="DA-logo" transform="translate(39.652000, 23.587000)">
                <path d="M7.663,18.779 C8.549,18.779 9.394,18.64 10.197,18.362 C11,18.083 11.701,17.656 12.298,17.08 C12.896,16.503 13.369,15.776 13.719,14.901 C14.07,14.025 14.244,12.99 14.244,11.795 C14.244,10.601 14.07,9.566 13.719,8.69 C13.369,7.815 12.901,7.089 12.314,6.512 C11.727,5.935 11.032,5.503 10.228,5.214 C9.424,4.926 8.579,4.781 7.694,4.781 L4.264,4.781 L4.264,18.779 L7.663,18.779 Z M0,22.734 L0,0.827 L7.849,0.827 C9.414,0.827 10.856,1.073 12.175,1.568 C13.493,2.062 14.631,2.778 15.589,3.715 C16.547,4.653 17.298,5.801 17.845,7.161 C18.39,8.52 18.663,10.065 18.663,11.795 C18.663,13.526 18.39,15.071 17.845,16.43 C17.298,17.79 16.541,18.933 15.574,19.86 C14.605,20.788 13.462,21.498 12.144,21.992 C10.825,22.487 9.383,22.734 7.818,22.734 L0,22.734 L0,22.734 Z" id="Fill-58" fill="#102D3D"></path>
                <path d="M31.518,13.402 C31.496,13.031 31.419,12.666 31.285,12.306 C31.152,11.945 30.946,11.626 30.667,11.348 C30.39,11.069 30.039,10.843 29.618,10.668 C29.195,10.493 28.695,10.405 28.119,10.405 C27.582,10.405 27.109,10.497 26.698,10.683 C26.285,10.869 25.935,11.105 25.647,11.394 C25.358,11.683 25.137,12.002 24.982,12.351 C24.827,12.702 24.74,13.052 24.72,13.402 L31.518,13.402 Z M35.349,18.377 C35.163,19.037 34.87,19.66 34.468,20.246 C34.067,20.833 33.578,21.344 33,21.776 C32.424,22.208 31.749,22.554 30.977,22.811 C30.204,23.068 29.355,23.198 28.428,23.198 C27.377,23.198 26.377,23.017 25.43,22.657 C24.483,22.296 23.648,21.766 22.927,21.065 C22.206,20.365 21.634,19.51 21.212,18.501 C20.79,17.492 20.579,16.348 20.579,15.071 C20.579,13.856 20.784,12.753 21.198,11.765 C21.609,10.776 22.16,9.937 22.85,9.246 C23.54,8.556 24.338,8.021 25.246,7.64 C26.151,7.259 27.088,7.068 28.057,7.068 C30.425,7.068 32.269,7.768 33.588,9.169 C34.906,10.57 35.566,12.496 35.566,14.947 C35.566,15.236 35.555,15.509 35.535,15.766 C35.514,16.024 35.503,16.173 35.503,16.214 L24.627,16.214 C24.647,16.708 24.766,17.167 24.982,17.589 C25.199,18.012 25.477,18.377 25.817,18.686 C26.157,18.995 26.553,19.237 27.006,19.412 C27.459,19.587 27.944,19.675 28.458,19.675 C29.427,19.675 30.184,19.459 30.73,19.026 C31.276,18.593 31.672,18.037 31.919,17.357 L35.349,18.377 L35.349,18.377 Z" id="Fill-59" fill="#102D3D"></path>
                <polygon id="Fill-60" fill="#102D3D" points="38.253 22.734 42.362 22.734 42.362 0.363 38.253 0.363"></polygon>
                <polygon id="Fill-61" fill="#102D3D" points="45.948 22.734 50.057 22.734 50.057 7.532 45.948 7.532"></polygon>
                <polyline id="Fill-62" fill="#102D3D" points="62.231 22.734 58.121 22.734 51.911 7.532 56.422 7.532 60.192 17.728 63.807 7.532 68.133 7.532 62.231 22.734"></polyline>
                <path d="M79.596,13.402 C79.575,13.031 79.497,12.666 79.365,12.306 C79.23,11.945 79.025,11.626 78.746,11.348 C78.468,11.069 78.118,10.843 77.696,10.668 C77.273,10.493 76.773,10.405 76.197,10.405 C75.661,10.405 75.188,10.497 74.776,10.683 C74.364,10.869 74.013,11.105 73.725,11.394 C73.437,11.683 73.215,12.002 73.061,12.351 C72.907,12.702 72.819,13.052 72.798,13.402 L79.596,13.402 Z M83.427,18.377 C83.243,19.037 82.949,19.66 82.547,20.246 C82.145,20.833 81.656,21.344 81.079,21.776 C80.502,22.208 79.827,22.554 79.055,22.811 C78.283,23.068 77.433,23.198 76.506,23.198 C75.455,23.198 74.456,23.017 73.509,22.657 C72.561,22.296 71.727,21.766 71.006,21.065 C70.285,20.365 69.713,19.51 69.291,18.501 C68.869,17.492 68.658,16.348 68.658,15.071 C68.658,13.856 68.864,12.753 69.276,11.765 C69.687,10.776 70.239,9.937 70.929,9.246 C71.619,8.556 72.416,8.021 73.324,7.64 C74.23,7.259 75.166,7.068 76.135,7.068 C78.503,7.068 80.348,7.768 81.666,9.169 C82.985,10.57 83.644,12.496 83.644,14.947 C83.644,15.236 83.633,15.509 83.613,15.766 C83.592,16.024 83.582,16.173 83.582,16.214 L72.705,16.214 C72.726,16.708 72.844,17.167 73.061,17.589 C73.277,18.012 73.555,18.377 73.895,18.686 C74.235,18.995 74.631,19.237 75.084,19.412 C75.537,19.587 76.022,19.675 76.536,19.675 C77.505,19.675 78.262,19.459 78.808,19.026 C79.354,18.593 79.75,18.037 79.997,17.357 L83.427,18.377 L83.427,18.377 Z" id="Fill-63" fill="#102D3D"></path>
                <path d="M95.601,11.61 C95.189,11.528 94.778,11.487 94.366,11.487 C93.829,11.487 93.325,11.559 92.851,11.703 C92.377,11.847 91.965,12.084 91.616,12.413 C91.265,12.743 90.982,13.181 90.766,13.726 C90.549,14.273 90.442,14.958 90.442,15.782 L90.442,22.734 L86.331,22.734 L86.331,7.532 L90.318,7.532 L90.318,9.787 C90.544,9.292 90.837,8.886 91.199,8.566 C91.558,8.247 91.94,8.006 92.341,7.84 C92.744,7.676 93.145,7.562 93.546,7.5 C93.949,7.438 94.314,7.408 94.644,7.408 C94.808,7.408 94.968,7.413 95.122,7.423 C95.277,7.434 95.436,7.45 95.601,7.47 L95.601,11.61" id="Fill-64" fill="#102D3D"></path>
                <polyline id="Fill-65" fill="#102D3D" points="98.846 28.728 102.43 20.818 95.972 7.532 100.576 7.532 104.623 16.43 108.363 7.532 112.75 7.532 103.202 28.728 98.846 28.728"></polyline>
                <path d="M118.583,13.835 L124.64,13.835 L121.612,5.554 L118.583,13.835 Z M126.061,17.728 L117.162,17.728 L115.339,22.734 L110.828,22.734 L119.233,0.827 L124.176,0.827 L132.52,22.734 L127.884,22.734 L126.061,17.728 L126.061,17.728 Z" id="Fill-66" fill="#102D3D"></path>
                <path d="M138.42,22.734 L134.311,22.734 L134.311,7.532 L138.297,7.532 L138.297,9.416 C138.771,8.634 139.414,8.057 140.228,7.686 C141.042,7.315 141.861,7.13 142.685,7.13 C143.632,7.13 144.451,7.289 145.141,7.609 C145.831,7.929 146.403,8.355 146.856,8.891 C147.309,9.427 147.644,10.065 147.861,10.807 C148.077,11.548 148.185,12.331 148.185,13.155 L148.185,22.734 L144.076,22.734 L144.076,13.866 C144.076,13 143.854,12.28 143.411,11.703 C142.968,11.126 142.252,10.837 141.263,10.837 C140.357,10.837 139.657,11.142 139.162,11.749 C138.667,12.357 138.42,13.104 138.42,13.99 L138.42,22.734" id="Fill-67" fill="#102D3D"></path>
                <path d="M158.505,18.532 C159.556,18.532 160.415,18.182 161.085,17.481 C161.754,16.781 162.089,15.843 162.089,14.669 C162.089,13.495 161.739,12.563 161.039,11.872 C160.338,11.183 159.494,10.837 158.505,10.837 C157.99,10.837 157.511,10.925 157.068,11.1 C156.625,11.275 156.239,11.533 155.91,11.872 C155.579,12.212 155.323,12.62 155.137,13.093 C154.952,13.567 154.859,14.093 154.859,14.669 C154.859,15.864 155.199,16.807 155.878,17.496 C156.558,18.187 157.434,18.532 158.505,18.532 Z M154.426,22.58 C154.57,23.424 154.952,24.114 155.57,24.65 C156.188,25.185 156.991,25.453 157.98,25.453 C159.278,25.453 160.277,25.118 160.977,24.449 C161.677,23.779 162.028,22.703 162.028,21.22 L162.028,20.107 C161.719,20.602 161.214,21.05 160.513,21.452 C159.813,21.853 158.907,22.054 157.794,22.054 C156.785,22.054 155.848,21.869 154.983,21.498 C154.118,21.127 153.37,20.613 152.743,19.953 C152.114,19.294 151.619,18.516 151.259,17.62 C150.899,16.724 150.718,15.741 150.718,14.669 C150.718,13.66 150.893,12.707 151.244,11.811 C151.594,10.915 152.077,10.127 152.696,9.447 C153.314,8.767 154.055,8.232 154.92,7.84 C155.786,7.45 156.744,7.253 157.794,7.253 C159.01,7.253 159.967,7.47 160.668,7.902 C161.368,8.335 161.853,8.809 162.12,9.324 L162.12,7.532 L166.076,7.532 L166.076,21.096 C166.076,22.147 165.926,23.151 165.627,24.109 C165.328,25.067 164.86,25.911 164.222,26.642 C163.582,27.373 162.758,27.96 161.749,28.404 C160.74,28.847 159.525,29.068 158.103,29.068 C157.053,29.068 156.1,28.919 155.245,28.62 C154.39,28.322 153.643,27.919 153.005,27.415 C152.367,26.911 151.851,26.323 151.46,25.654 C151.069,24.984 150.822,24.289 150.718,23.568 L154.426,22.58 L154.426,22.58 Z" id="Fill-68" fill="#102D3D"></path>
                <path d="M179.702,13.402 C179.681,13.031 179.604,12.666 179.47,12.306 C179.335,11.945 179.13,11.626 178.852,11.348 C178.574,11.069 178.223,10.843 177.801,10.668 C177.379,10.493 176.879,10.405 176.303,10.405 C175.767,10.405 175.293,10.497 174.881,10.683 C174.469,10.869 174.119,11.105 173.83,11.394 C173.542,11.683 173.321,12.002 173.166,12.351 C173.012,12.702 172.924,13.052 172.904,13.402 L179.702,13.402 Z M183.533,18.377 C183.348,19.037 183.054,19.66 182.653,20.246 C182.251,20.833 181.761,21.344 181.185,21.776 C180.608,22.208 179.933,22.554 179.161,22.811 C178.388,23.068 177.538,23.198 176.612,23.198 C175.561,23.198 174.562,23.017 173.615,22.657 C172.666,22.296 171.832,21.766 171.112,21.065 C170.39,20.365 169.819,19.51 169.397,18.501 C168.974,17.492 168.763,16.348 168.763,15.071 C168.763,13.856 168.969,12.753 169.381,11.765 C169.793,10.776 170.344,9.937 171.035,9.246 C171.724,8.556 172.523,8.021 173.429,7.64 C174.335,7.259 175.273,7.068 176.241,7.068 C178.61,7.068 180.453,7.768 181.772,9.169 C183.09,10.57 183.749,12.496 183.749,14.947 C183.749,15.236 183.739,15.509 183.719,15.766 C183.698,16.024 183.688,16.173 183.688,16.214 L172.811,16.214 C172.831,16.708 172.951,17.167 173.166,17.589 C173.383,18.012 173.661,18.377 174,18.686 C174.34,18.995 174.737,19.237 175.191,19.412 C175.643,19.587 176.127,19.675 176.643,19.675 C177.611,19.675 178.368,19.459 178.913,19.026 C179.459,18.593 179.856,18.037 180.104,17.357 L183.533,18.377 L183.533,18.377 Z" id="Fill-69" fill="#102D3D"></path>
                <polygon id="Fill-70" fill="#102D3D" points="186.438 22.734 190.547 22.734 190.547 0.363 186.438 0.363"></polygon>
                <path d="M196.634,17.728 C196.675,18.326 196.922,18.862 197.376,19.335 C197.828,19.809 198.509,20.045 199.415,20.045 C200.095,20.045 200.6,19.896 200.929,19.598 C201.258,19.299 201.423,18.944 201.423,18.532 C201.423,18.182 201.3,17.878 201.053,17.62 C200.806,17.363 200.383,17.172 199.786,17.048 L197.778,16.585 C196.294,16.256 195.213,15.684 194.534,14.87 C193.853,14.057 193.513,13.114 193.513,12.043 C193.513,11.363 193.658,10.719 193.946,10.112 C194.235,9.504 194.631,8.979 195.136,8.536 C195.64,8.093 196.238,7.737 196.928,7.47 C197.618,7.202 198.374,7.068 199.199,7.068 C200.27,7.068 201.176,7.218 201.918,7.516 C202.66,7.815 203.262,8.191 203.726,8.644 C204.189,9.097 204.534,9.576 204.761,10.08 C204.987,10.585 205.12,11.043 205.162,11.455 L201.733,12.228 C201.692,12.002 201.624,11.77 201.532,11.533 C201.439,11.296 201.289,11.075 201.083,10.869 C200.877,10.663 200.625,10.497 200.327,10.374 C200.028,10.251 199.662,10.188 199.23,10.188 C198.694,10.188 198.236,10.333 197.855,10.621 C197.474,10.91 197.284,11.27 197.284,11.703 C197.284,12.074 197.411,12.372 197.669,12.599 C197.926,12.826 198.261,12.98 198.674,13.062 L200.836,13.526 C202.34,13.835 203.468,14.412 204.22,15.256 C204.972,16.101 205.348,17.08 205.348,18.192 C205.348,18.809 205.229,19.418 204.993,20.015 C204.755,20.613 204.39,21.148 203.896,21.621 C203.402,22.096 202.784,22.476 202.041,22.765 C201.3,23.053 200.435,23.198 199.447,23.198 C198.292,23.198 197.325,23.033 196.541,22.703 C195.758,22.373 195.12,21.972 194.625,21.498 C194.131,21.024 193.765,20.515 193.529,19.968 C193.291,19.423 193.153,18.933 193.112,18.501 L196.634,17.728" id="Fill-71" fill="#102D3D"></path>
                <path d="M50.536,2.568 C50.536,3.986 49.387,5.136 47.969,5.136 C46.551,5.136 45.402,3.986 45.402,2.568 C45.402,1.15 46.551,0 47.969,0 C49.387,0 50.536,1.15 50.536,2.568" id="Fill-72" fill="#74BB64"></path>
                <path d="M50.536,27.701 C50.536,29.12 49.387,30.269 47.969,30.269 C46.551,30.269 45.402,29.12 45.402,27.701 C45.402,26.283 46.551,25.134 47.969,25.134 C49.387,25.134 50.536,26.283 50.536,27.701" id="Fill-73" fill="#74BB64"></path>
            </g>
        </g>
    </g>
</svg>